<svg width="57" height="32" viewBox="0 0 57 32" xmlns="http://www.w3.org/2000/svg">
<path d="M0 25.9405C0 26.6479 0.256435 27.1827 0.769195 27.5452C1.28201 27.9077 1.83015 28.0359 2.41368 27.9298C2.96182 27.8237 3.34642 27.6292 3.56753 27.3463C3.78852 27.0634 3.89908 26.5948 3.89908 25.9405V18.2485C3.89908 17.7003 3.70901 17.2362 3.32881 16.856C2.94867 16.4758 2.4845 16.2858 1.9363 16.2858C1.40582 16.2858 0.950514 16.4758 0.57032 16.856C0.190125 17.2362 0 17.7003 0 18.2485V25.9405ZM6.10051 29.2295C6.10051 29.7424 6.28178 30.1269 6.64425 30.3833C7.00678 30.6398 7.47095 30.7679 8.03676 30.7679C8.62029 30.7679 9.09326 30.6397 9.45579 30.3833C9.81827 30.127 9.99953 29.7424 9.99953 29.2295V11.2992C9.99953 10.7688 9.80941 10.3134 9.42927 9.93325C9.04907 9.55311 8.5849 9.36299 8.03676 9.36299C7.50628 9.36299 7.05092 9.55311 6.67078 9.93325C6.29058 10.3134 6.10051 10.7688 6.10051 11.2992V29.2295ZM12.1745 30.0783C12.1745 30.5911 12.3602 30.9757 12.7315 31.2321C13.1028 31.4885 13.5803 31.6167 14.1638 31.6167C14.7297 31.6167 15.1938 31.4885 15.5563 31.2321C15.9188 30.9757 16.1001 30.5911 16.1001 30.0783V13.7129C16.1001 13.1648 15.91 12.6962 15.5298 12.3072C15.1496 11.9182 14.6943 11.7237 14.1638 11.7237C13.6157 11.7237 13.1471 11.9182 12.7581 12.3072C12.3691 12.6962 12.1746 13.1648 12.1746 13.7129L12.1745 30.0783ZM18.275 30.1578C18.275 31.1304 18.9293 31.6167 20.2378 31.6167C21.5463 31.6167 22.2005 31.1304 22.2005 30.1578V3.63379C22.2005 2.14845 21.7496 1.30854 20.8478 1.11401C20.2643 0.97253 19.6895 1.14053 19.1237 1.61797C18.5579 2.0954 18.275 2.76731 18.275 3.63379V30.1578H18.275ZM24.4817 30.927V2.06888C24.4817 1.14939 24.7557 0.601248 25.3039 0.424385C26.4886 0.14148 27.6645 0 28.8316 0C31.537 0 34.0568 0.636577 36.3909 1.90973C38.725 3.18288 40.6126 4.92021 42.0537 7.12171C43.4949 9.32325 44.3304 11.7501 44.5603 14.4026C45.6389 13.9428 46.7882 13.713 48.0083 13.713C50.4839 13.713 52.6014 14.5883 54.3608 16.3389C56.1203 18.0895 57 20.1937 57 22.6516C57 25.1272 56.1203 27.2403 54.3608 28.9909C52.6014 30.7415 50.4928 31.6168 48.0348 31.6168L24.959 31.5902C24.7998 31.5372 24.6804 31.4399 24.6009 31.2985C24.5213 31.1571 24.4817 31.0331 24.4817 30.927Z"/>
</svg>
