<svg width="40" height="40" viewBox="0 0 40 40" xmlns="http://www.w3.org/2000/svg">
<path d="M20 0C8.95394 0 0 8.95394 0 20C0 31.0461 8.95394 40 20 40C31.0461 40 40 31.0461 40 20C40 8.95531 31.0461 0.00136472 20 0ZM29.1723 28.8448C28.8134 29.4343 28.045 29.6186 27.4582 29.2596C22.7622 26.3896 16.8502 25.7414 9.88877 27.3313C9.21733 27.4855 8.54862 27.0652 8.39577 26.3937C8.24156 25.7223 8.66053 25.0536 9.33333 24.9007C16.9512 23.1607 23.4869 23.9099 28.7588 27.1307C29.3456 27.4923 29.5326 28.2579 29.1723 28.8448ZM31.6192 23.4009C31.1675 24.1351 30.2068 24.3644 29.4739 23.914C24.0996 20.61 15.9031 19.6534 9.54487 21.5831C8.72057 21.8328 7.84988 21.3675 7.59877 20.5445C7.35039 19.7202 7.81576 18.8509 8.63869 18.5998C15.9017 16.3958 24.9321 17.463 31.1047 21.2569C31.839 21.7086 32.071 22.668 31.6192 23.4009ZM31.8294 17.7291C25.3825 13.9011 14.7485 13.549 8.59365 15.4159C7.6056 15.7161 6.56022 15.158 6.26134 14.1699C5.96247 13.1818 6.51928 12.1365 7.5087 11.8362C14.5739 9.69226 26.3173 10.1058 33.7387 14.5111C34.6271 15.0392 34.9191 16.187 34.3924 17.074C33.8669 17.9638 32.7165 18.2572 31.8294 17.7291Z"/>
</svg>
