<svg width="51" height="36" viewBox="0 0 51 36" xmlns="http://www.w3.org/2000/svg">
<path d="M49.5795 6.09092C49.0034 3.9383 47.3116 2.24666 45.159 1.67044C41.2614 0.625 25.6249 0.625 25.6249 0.625C25.6249 0.625 9.98867 0.625 6.09091 1.67044C3.93831 2.24666 2.24667 3.9383 1.67044 6.09092C0.625 9.98867 0.625 18.1258 0.625 18.1258C0.625 18.1258 0.625 26.263 1.67044 30.1608C2.24667 32.3134 3.93831 34.005 6.09091 34.5811C9.98867 35.6266 25.6249 35.6266 25.6249 35.6266C25.6249 35.6266 41.2614 35.6266 45.159 34.5811C47.3116 34.005 49.0034 32.3134 49.5795 30.1608C50.625 26.263 50.625 18.1258 50.625 18.1258C50.625 18.1258 50.6208 9.98867 49.5795 6.09092Z" />
<path d="M20.6204 25.6256L33.6102 18.1265L20.6204 10.6273V25.6256Z" fill="white"/>
</svg>
